<svg xmlns="http://www.w3.org/2000/svg" viewBox="0 0 24 24">
  <path fill="#ffffff" d="M12 1.9c-5.6 0-10.1 4.5-10.1 10.1 0 4.5 2.9 8.3 6.9 9.6.5.1.7-.2.7-.5v-1.8c-2.8.6-3.4-1.2-3.4-1.2-.5-1.1-1.1-1.4-1.1-1.4-.9-.6.1-.6.1-.6 1 0 1.6 1.1 1.6 1.1.9 1.6 2.4 1.1 2.9.9.1-.7.4-1.1.6-1.4-2.2-.3-4.6-1.1-4.6-5 0-1.1.4-2 1.1-2.8-.1-.3-.5-1.3.1-2.7 0 0 .9-.3 2.8 1.1.8-.2 1.6-.3 2.5-.3.8 0 1.7.1 2.5.3 1.9-1.3 2.8-1.1 2.8-1.1.6 1.4.2 2.4.1 2.7.7.8 1.1 1.7 1.1 2.8 0 3.9-2.4 4.7-4.6 5 .4.3.7 1 .7 2v2.9c0 .3.2.6.7.5 4-1.3 6.9-5.1 6.9-9.6 0-5.6-4.5-10.1-10.1-10.1z"/>
</svg>
