<?xml version="1.0" encoding="UTF-8" standalone="yes"?>
<svg
   width="900px"
   height="900px"
   viewBox="0 0 900 900"
   version="1.1"
   id="SVGRoot"
   xmlns="http://www.w3.org/2000/svg"
   xmlns:svg="http://www.w3.org/2000/svg">
  <g
     id="g2"
     transform="matrix(1.008,0,0,1,-7.1999988,0)">
    <path
       style="fill:#08111f;fill-opacity:1;stroke:none;stroke-width:1.12053"
       id="rect2"
       width="800"
       height="800"
       x="53.571426"
       y="50"
       d="M 86.960617,0 H 800.79365 A 99.20635,100 0 0 1 900,100 V 800 A 99.206346,99.999997 0 0 1 800.79365,900 H 106.34921 A 99.20635,100 0 0 1 7.142856,800 V 80.456299 A 79.817756,80.456299 0 0 1 86.960617,0 Z" />
    <g
       id="g1">
      <path
         id="path5"
         d="m 662.0821,527.63974 c -2.66881,3.99185 -7.89513,6.97621 -12.00859,9.23035 -4.52081,2.47851 -9.36919,4.37284 -14.36455,5.62373 -5.4573,1.36519 -11.34506,2.09329 -17.15093,1.85835 -12.31726,2.53988 -31.20891,-8.93192 -33.26038,-21.70754 -0.28768,-1.80121 2.05987,-2.5801 3.25044,-1.58531 5.00796,4.18446 8.17651,9.55631 14.01178,12.99363 5.31032,3.12828 11.18759,3.97703 16.81288,6.16979 0.61312,0.23706 0.96168,0.77255 1.08977,1.37366 4.82738,0.0762 9.65686,-0.38734 14.55562,-1.62553 4.94496,-1.24878 9.71985,-3.12405 14.17766,-5.6195 4.13656,-2.3134 7.4584,-5.774 11.49206,-8.11915 0.84411,-0.49106 1.98217,0.52914 1.39424,1.40752 z m -16.09685,13.745 c 0.0378,-0.0529 0.0714,-0.11216 0.10714,-0.16721 0.14697,-0.0466 0.29186,-0.0953 0.43675,-0.14393 -0.17638,0.11002 -0.36327,0.2032 -0.54385,0.31114 z m 0.19528,10.96383 c -0.82941,0.15451 -1.65882,0.31537 -2.48403,0.48047 1.59372,-0.57995 3.15805,-1.2509 4.69299,-2.00863 -0.72652,0.52703 -1.46144,1.035 -2.20896,1.52816 z m -38.69249,6.44707 c -1.66513,-0.52278 -3.25466,-1.1493 -4.77279,-1.86469 -0.19107,-0.11217 -0.38635,-0.21378 -0.57744,-0.32808 -2.44833,-1.46254 -4.5544,-3.29761 -6.3518,-5.43746 1.88978,1.4689 3.89087,2.73672 5.89406,3.75267 8.59646,4.36438 18.85804,5.71475 28.68707,4.47443 -7.37859,1.82449 -15.15824,1.82661 -22.8791,-0.59687 z m -17.65699,-18.65756 c -0.72652,-2.16737 -1.30606,-4.45538 -1.75121,-6.83652 1.22627,0.83604 2.55332,1.56414 3.95177,2.15467 2.66251,4.43209 6.30561,7.85247 10.48416,10.18917 -0.30446,1.15353 0.0546,2.48485 1.44464,3.33148 7.33661,4.45961 15.61811,6.65237 23.90171,6.64603 -5.44681,0.60322 -10.92511,0.59052 -16.5798,-0.817 -7.62427,-1.90068 -17.02285,-7.2683 -21.45127,-14.66783 z m 92.36057,-120.28891 c -7.52768,-2.10176 -15.28844,1.79696 -22.1442,5.57292 -14.43803,7.95408 -21.61505,9.17957 -37.22056,10.49819 -5.53709,0.46776 -11.23378,1.5705 -16.68478,3.39922 -7.22951,8.50014 -13.02068,18.18134 -17.5667,28.41918 -3.08456,6.94447 -5.5518,14.10483 -7.87204,21.33503 -1.48664,4.63317 -2.67721,9.68542 -4.5229,14.33553 0.0798,4.55062 0.66772,9.19649 2.27615,14.15773 -5.94446,16.15367 2.38113,35.07157 16.00025,44.69774 0.41786,0.29419 0.83991,0.57359 1.26407,0.85086 2.37064,2.91663 5.00166,5.53271 7.91614,7.67468 1.18848,0.87415 3.21055,-0.46353 2.13127,-1.84141 -0.38635,-0.49105 -0.77272,-0.97363 -1.16118,-1.45833 14.82439,5.24063 32.2315,2.33035 45.46846,-5.97931 15.00708,-9.42296 26.45294,-24.3723 35.47145,-39.43804 1.62942,-2.72192 3.27775,-5.57717 4.87987,-8.53613 3.48982,-5.05438 6.11664,-10.70138 7.77336,-16.61931 6.69827,-17.40456 8.25421,-70.29342 -16.00866,-77.06855"
         style="fill:#ffffff;fill-opacity:1;fill-rule:nonzero;stroke:none;stroke-width:0.210816" />
      <path
         id="path10"
         d="m 553.25722,604.9644 c -5.00376,5.64489 -12.48315,8.65888 -20.31109,6.0555 l -1.26826,-0.7027 c -0.0504,0.0973 -0.0924,0.18837 -0.14489,0.28573 -0.21627,0.007 -0.40735,0.0889 -0.57743,0.20108 -0.19739,-0.44237 -0.38007,-0.88896 -0.53755,-1.33979 -0.0294,-0.0826 -0.0735,-0.15028 -0.10502,-0.23071 3.48352,2.43194 7.74606,3.43096 12.54614,1.8266 2.52603,-0.84239 4.68668,-2.32822 6.44629,-4.20351 1.42575,-0.37039 2.77381,-1.02018 3.95178,-1.8922 z m 11.23588,-3.5241 c -0.57323,-0.60534 -1.23466,-1.17681 -1.99898,-1.70383 -0.69923,-0.48258 -1.8079,-0.22859 -2.44414,0.36828 0.42416,-1.46044 0.66564,-3.00553 0.66983,-4.6353 0.004,-1.32708 -1.8646,-1.29956 -2.19007,-0.1545 -0.34436,1.21491 -0.78741,2.39807 -1.31025,3.53891 0.34017,-1.67633 0.27508,-3.5368 -0.36116,-5.53483 -0.9071,-2.85949 -2.05567,-5.7211 -3.35334,-8.56788 4.91557,6.21637 8.86734,12.22742 10.98811,16.68915 z m -14.04747,17.93793 c -1.59163,0.94399 -3.21895,1.4308 -4.82948,1.56203 -3.6956,-2.07212 -6.77596,-4.74746 -8.2584,-6.66296 8.35079,0.66037 17.42811,-3.59182 21.35678,-10.91092 -1.77221,5.97508 -2.27406,12.45389 -8.2689,16.01185 z m -23.0072,-12.56608 c 0.009,-0.0127 0.0167,-0.0254 0.0252,-0.0402 0.0189,0.0212 0.0378,0.0381 0.0567,0.0572 -0.0273,-0.007 -0.0546,-0.0101 -0.0819,-0.0169 z m -12.29837,18.43745 c -4.87148,0.90378 -9.61696,-0.90801 -12.72042,-4.78345 -8.76865,-10.95113 -1.22417,-25.02844 5.11505,-34.91706 0.46194,-0.72386 1.57903,-0.0762 1.15067,0.67731 -4.92396,8.661 -10.85582,19.28407 -6.27832,29.35471 1.8898,4.15906 5.46571,7.25771 10.0999,7.30216 -1.17797,-0.24763 -2.43362,-0.98209 -3.77329,-2.38537 -0.78951,-0.82758 -1.41734,-1.74617 -1.92969,-2.72403 0.40946,0.35771 0.83991,0.70271 1.29346,1.02866 2.26145,1.62552 5.26413,2.73673 8.3403,3.10501 -0.34226,0.2434 -0.69503,0.44659 -1.05409,0.61168 1.18427,-0.29844 2.32655,-0.77255 3.30295,-1.48371 1.58532,-1.15565 2.01787,-3.07961 3.45202,-4.22467 0.49975,-0.40004 1.25986,-0.30056 1.45514,0.38732 1.19478,4.20351 -5.25992,7.4588 -8.45368,8.05144 z m 7.29461,-12.3777 c 0.0315,0.17568 0.0651,0.35135 0.10078,0.52491 -0.40946,0.0804 -0.81892,0.15451 -1.22837,0.22012 0.38216,-0.23706 0.76851,-0.47199 1.12758,-0.74503 z m 21.01242,-47.0048 c -1.15278,-2.04884 -2.28036,-4.07439 -3.34284,-6.0682 -1.95909,-3.67437 -6.06204,-5.05648 -9.97391,-4.57815 -3.21266,-1.9938 -6.15654,-3.32724 -8.81485,-3.98549 -0.19318,-0.0509 -0.38636,-0.0953 -0.57954,-0.12911 -1.39214,-0.29844 -2.70661,-0.41909 -3.93497,-0.33654 -3.43943,-2.58433 -9.44477,-1.75887 -11.37657,2.48062 -2.48192,5.44806 -3.77328,11.62632 -4.567,17.95699 -7.14972,16.42881 -13.47424,38.7036 -7.3156,52.10571 2.85989,6.22273 7.98963,10.13626 15.26533,11.65807 0.63834,0.13335 1.29346,0.24765 1.96539,0.34501 10.57446,1.52181 15.57191,-3.37382 19.16882,-9.68119 6.13764,5.18771 14.93149,7.22597 22.89172,4.10825 0.39475,-0.15662 0.79371,-0.34076 1.19057,-0.5376 2.42733,0.22859 4.81058,0.0254 7.00904,-0.78737 4.69719,-1.73558 10.31828,-6.86615 10.41696,-21.43661 0.0441,-6.52751 -8.56706,-19.72221 -18.75096,-31.38874 11.60334,8.44723 19.39979,20.99848 23.0093,36.13832 0.28977,1.21702 2.21316,0.80218 2.11657,-0.41909 -1.49924,-18.74011 -15.15616,-35.76579 -32.22939,-43.33889 -0.71813,-0.71751 -1.43415,-1.42234 -2.14807,-2.10599"
         style="fill:#ffffff;fill-opacity:1;fill-rule:nonzero;stroke:none;stroke-width:0.210816" />
      <path
         id="path17"
         d="m 419.28547,551.29029 c -19.22761,4.70301 -40.71038,0.13546 -57.96421,-9.03564 -0.73702,-0.39156 -1.45934,-0.81065 -2.18376,-1.22549 -5.38591,-3.39709 -10.43377,-7.3064 -14.99027,-11.64114 0.44515,0.19896 0.88821,0.40214 1.33966,0.57994 0.0987,0.0403 0.19738,0.072 0.29396,0.108 1.09189,1.27629 2.24465,2.47851 3.45623,3.5897 16.23333,14.90278 43.82854,20.22595 65.00053,16.78652 1.41736,-0.2307 1.30816,-2.22029 -0.14278,-2.24991 -13.02698,-0.2688 -27.03876,-1.03077 -39.84527,-4.96548 -0.26667,0.23495 -0.59214,0.40003 -0.95749,0.43813 -7.89095,0.84663 -16.90107,-5.15173 -22.85602,-9.7849 -6.4358,-5.0078 -14.04957,-12.52163 -15.77139,-20.8461 -0.24987,-1.21491 1.03728,-2.30072 2.09137,-1.38212 6.07464,5.30624 10.40647,12.10889 16.92626,17.08072 5.98435,4.56544 13.53513,6.7561 19.49429,11.07178 8.07362,1.67421 16.18714,3.01822 24.45395,3.68919 5.95704,0.48258 11.93929,0.66883 17.91524,0.5503 3.33444,-0.0656 6.69617,-0.41484 10.04951,-0.66672 5.29772,-1.47313 10.44428,-3.44154 15.27375,-5.99201 1.94649,-1.02865 4.02526,-2.29648 6.08094,-3.76537 -7.14133,8.34774 -15.93938,14.79059 -27.6645,17.66065 z m 64.01155,-77.30349 c -0.0524,-1.40752 -0.14908,-2.81081 -0.27087,-4.21409 -1.831,-4.59719 -4.05047,-9.03564 -6.66048,-13.23703 -4.35913,-7.0122 -9.66524,-13.32805 -15.68109,-18.85653 -21.94472,-9.79337 -54.45759,-0.18626 -78.22701,-6.43014 -9.67575,-2.542 -19.18142,-5.99836 -29.11753,-7.13073 -33.03152,-3.76537 -43.84955,33.25767 -40.67259,61.00379 2.01578,17.60563 9.60856,33.76564 21.39457,46.85028 23.41036,25.98937 64.65409,42.23192 98.37852,28.23716 8.98282,-3.72727 17.63599,-9.72775 24.20617,-17.33471 -0.98479,1.52394 -1.99268,3.03305 -3.05307,4.5083 -6.80746,9.47165 -14.94407,17.51038 -23.77991,25.04749 -1.37955,1.17682 0.0147,3.53678 1.58742,2.43617 9.94662,-6.96139 18.55149,-15.96317 25.57942,-25.87506 1.45515,-2.05308 2.98169,-4.24373 4.48301,-6.52963 -0.53543,1.76946 -1.11077,3.53256 -1.7974,5.28296 -3.35543,8.57212 -7.83215,16.44575 -12.62592,24.26436 -0.71813,1.17047 1.12337,2.44888 1.97588,1.37154 6.22792,-7.86941 11.0385,-16.8733 14.59551,-26.26875 2.21947,-5.86713 4.49562,-12.29516 5.577,-18.74011 1.44464,-3.49658 2.49663,-7.05664 2.89558,-10.59344 0.13229,-1.17469 -1.28296,-1.67843 -1.91709,-0.67941 -0.32126,0.50374 -0.62152,1.0223 -0.9176,1.54297 -0.35065,-0.20107 -0.79581,-0.20742 -1.18637,-0.0296 0.0714,-0.5503 0.13649,-1.10272 0.18478,-1.65938 0.0273,-0.29209 0.0252,-0.57783 0.004,-0.85509 2.61842,-2.0298 5.00165,-4.38766 7.06573,-7.0503 7.51719,-9.68966 10.12931,-22.08853 8.02323,-33.88418 -0.0147,-0.39791 -0.0293,-0.78948 -0.0441,-1.17681"
         style="fill:#ffffff;fill-opacity:1;fill-rule:nonzero;stroke:none;stroke-width:0.210816" />
      <path
         id="path19"
         d="m 503.6942,160.32591 c 5.07306,-0.27092 10.1482,-0.41696 15.22546,-0.4847 -1.81421,-3.66377 -2.80321,-7.69584 -3.00688,-11.8168 -1.25987,-0.0867 -2.52812,-0.17144 -3.7691,-0.26881 -6.82215,-0.53126 -13.65901,-0.86355 -20.50007,-1.01383 0.69923,2.12927 1.39635,4.26066 2.09348,6.38992 0.96799,2.95897 2.39584,5.24487 1.18847,7.7911 2.92078,-0.23706 5.84366,-0.44025 8.76864,-0.59688"
         style="fill:#ffffff;fill-opacity:1;fill-rule:nonzero;stroke:none;stroke-width:0.210816" />
      <path
         id="path20"
         d="m 645.20624,269.13455 c 0.0189,-21.59113 0.29186,-43.19919 0.0567,-64.78821 -0.14698,-13.61166 -0.8672,-20.00159 -9.59595,-23.55108 -0.37797,18.01413 -1.20738,35.9817 -2.08718,53.9789 -0.9029,18.44379 0.30237,37.20295 -1.59163,55.55996 -0.30446,2.94627 -1.33336,5.69992 -3.00477,7.8567 9.52667,-2.46579 16.20814,-11.1395 16.22284,-29.05627"
         style="fill:#ffffff;fill-opacity:1;fill-rule:nonzero;stroke:none;stroke-width:0.210816" />
      <path
         id="path21"
         d="m 614.32069,315.92346 c 1.07298,0.55242 1.42364,1.43714 1.31026,2.28377 17.80817,4.6882 38.44052,-0.43601 54.47648,-7.47784 9.78494,-4.29664 17.30842,-10.79451 21.56676,-20.49899 7.16862,-16.33991 9.02062,-31.63849 3.63471,-48.91816 -0.26037,-0.83604 -0.47666,-1.67633 -0.69923,-2.5166 -3.81738,-1.65304 -3.94337,-6.16981 -1.95068,-9.42932 -0.94071,-5.75708 -1.65672,-11.55013 -3.18117,-17.31567 -3.97906,-15.06574 -12.91779,-28.08688 -26.25554,-37.01245 -14.59552,-9.76586 -32.72704,-14.07732 -49.63021,-18.10091 -21.29379,-5.06919 -45.46846,-6.34972 -68.71923,-7.40376 0.34015,0.30901 0.61733,0.68365 0.78741,1.10908 0.31916,0.80006 0.51234,1.6615 0.66562,2.53776 3.97908,-1.10274 8.21851,-1.45408 12.30886,-1.37153 4.04836,0.0783 9.46998,-0.0932 12.16189,3.38016 0.81471,1.04982 0.8651,2.58856 -0.42626,3.33572 -3.6074,2.08904 -7.76286,0.61168 -11.73563,0.44236 -3.85308,-0.1651 -7.65996,0.1418 -11.48994,0.34288 0.009,0.35136 0.002,0.7027 -0.0293,1.05194 8.86523,0.2815 18.22391,0.73233 26.28074,3.54737 1.37115,0.48045 2.30345,1.33556 2.85149,2.34304 16.86537,-4.1252 36.8972,-2.2351 50.6213,1.15353 28.42881,7.01855 46.9152,27.98953 52.22763,56.09123 5.14865,27.24237 16.5798,48.08213 -9.59176,66.27615 -11.07,7.69374 -22.55995,13.309 -35.99429,15.379 -7.42689,1.14296 -29.86506,3.55585 -35.58483,-2.95896 5.35651,6.10208 9.07521,9.95212 16.39502,13.7302"
         style="fill:#ffffff;fill-opacity:1;fill-rule:nonzero;stroke:none;stroke-width:0.210816" />
      <path
         id="path22"
         d="m 617.00839,179.2163 c 0.0819,-0.8297 0.25408,-1.598 0.48716,-2.31764 -1.9192,-0.30267 -3.92448,-0.6011 -5.99905,-0.87838 -20.05702,-2.6817 -46.0753,-3.37381 -54.60878,13.28148 -6.3392,12.33749 -0.99948,29.05839 1.52024,41.42763 1.69662,8.33293 4.05466,16.54734 6.62058,24.67497 5.22844,16.56005 25.34845,34.52126 44.12251,41.02336 -1.06459,-1.81389 -1.68192,-3.8966 -1.64622,-6.0936 0.29187,-18.52211 3.72289,-37.07172 5.02055,-55.55996 1.29977,-18.54751 2.64152,-37.05692 4.48301,-55.55786"
         style="fill:#ffffff;fill-opacity:1;fill-rule:nonzero;stroke:none;stroke-width:0.210816" />
      <path
         id="path23"
         d="m 471.40181,163.62776 c 6.3854,-0.93764 12.79391,-1.71653 19.21291,-2.31553 -1.59163,-1.62341 -1.60212,-4.07439 -2.16696,-6.70952 -0.56694,-2.64784 -1.13178,-5.29566 -1.69452,-7.94349 -7.13712,-0.0614 -14.27214,0.0994 -21.38827,0.45929 0.35696,0.4339 0.60263,0.99056 0.64042,1.67633 0.17639,3.05421 0.67823,6.15922 2.12077,8.88536 1.10869,2.09541 2.59113,3.77173 3.27565,5.94756"
         style="fill:#ffffff;fill-opacity:1;fill-rule:nonzero;stroke:none;stroke-width:0.210816" />
      <path
         id="path24"
         d="m 193.21142,311.47019 c 0.70133,-0.30902 1.22837,0.57994 0.60054,1.035 -11.0889,8.05143 -26.26815,11.52261 -40.38408,10.99982 -1.96287,5.71262 -4.05445,11.3046 -6.2674,16.8098 6.07065,-1.26995 12.31811,-2.12715 18.27516,-3.33995 9.40068,-1.91549 18.77195,-4.11249 28.03195,-6.56983 9.28309,-2.46158 18.4612,-5.2745 27.50912,-8.43241 6.33501,-2.21394 12.52094,-4.93374 18.85805,-7.14131 -0.26668,-2.74944 -0.23938,-5.55389 -0.36536,-8.28638 -0.23518,-5.15597 -0.41996,-10.30982 -0.57114,-15.4679 -0.18268,-6.21424 -0.8882,-12.88567 -0.86301,-19.39413 -5.70718,2.93146 -12.35296,4.79827 -18.21132,6.69683 -12.9178,4.18658 -26.02038,6.03011 -39.19855,9.71295 -5.71558,1.59589 -12.00229,2.52718 -18.31001,2.81503 -0.57324,3.20872 -1.23886,6.42379 -2.01157,9.64521 7.18962,0.50798 14.34983,0.54607 21.54366,-0.26034 8.63215,-0.9715 16.5525,-3.73998 24.93479,-5.7359 0.78741,-0.18627 1.32285,0.95457 0.56484,1.35037 -7.29671,3.82464 -16.21234,5.33376 -24.30277,6.29468 -7.65996,0.91013 -15.47321,0.95457 -23.12898,-0.0699 -0.23938,0.94187 -0.47875,1.88587 -0.73912,2.83197 -1.57274,5.70416 -3.29497,11.23899 -5.12407,16.66799 4.8826,-0.0593 9.75406,-0.48469 14.57094,-1.42868 8.69095,-1.70384 16.53361,-5.16444 24.58833,-8.73297"
         style="fill:#ffffff;fill-opacity:1;fill-rule:nonzero;stroke:none;stroke-width:0.210816" />
      <path
         id="path25"
         d="m 540.62709,149.34091 c -6.46099,-0.29208 -12.83591,-0.58205 -19.03233,-0.95034 1.48244,4.12731 3.62211,7.76782 6.11454,11.43583 4.04205,0.0402 8.08621,0.12064 12.12828,0.29209 0.17427,0.009 0.35066,0.0127 0.52704,0.0212 -0.22887,-1.10696 -0.29397,-2.25838 -0.34856,-3.41825 -0.0987,-2.04461 -0.30027,-4.05536 0.0378,-6.07879 0.0924,-0.55455 0.29817,-0.97787 0.57323,-1.3017"
         style="fill:#ffffff;fill-opacity:1;fill-rule:nonzero;stroke:none;stroke-width:0.210816" />
      <path
         id="path27"
         d="m 696.32519,683.7516 c 6.30141,-9.03353 11.10148,-19.43224 15.52781,-29.49864 11.55505,-26.2751 18.80556,-54.2223 23.0387,-82.62455 -2.32865,4.91467 -5.03736,9.64098 -7.98544,14.2043 -18.13782,28.09323 -46.16348,52.59042 -53.55469,85.54119 -0.10502,9.22401 0.25829,18.00143 1.41315,24.53951 8.26891,1.31651 16.85067,-5.40784 21.56047,-12.16181"
         style="fill:#ffffff;fill-opacity:1;fill-rule:nonzero;stroke:none;stroke-width:0.210816" />
      <path
         id="path28"
         d="m 659.64426,664.56912 c -0.71181,25.23164 -15.51311,52.04435 -25.55841,73.8556 -7.31141,15.87428 -19.3746,52.88675 -36.39326,60.61222 -15.13305,6.8706 -22.80772,-4.96738 -37.17856,-8.61021 -35.76122,-9.06314 -65.73126,16.06858 -99.75807,15.74708 -32.93071,-0.31093 -63.34801,-23.11062 -87.02924,-43.99059 -4.38643,-3.8712 -8.50197,-7.99005 -12.66163,-12.10043 -3.47093,-3.42673 -7.44999,-5.58775 -10.48626,-9.4653 -7.4017,-9.45684 -12.94299,-20.35506 -19.03653,-30.67122 -8.2605,-13.98629 -15.99817,-30.16536 -17.88796,-46.50316 -0.62363,-5.39937 6.74866,-6.0407 8.63846,-1.71442 4.98486,11.41677 9.12141,22.8907 14.7446,33.87147 0.52914,-3.52197 0.9176,-7.06723 1.18428,-10.62518 -2.38325,-6.51692 -3.96648,-13.27936 -5.24943,-17.44901 -4.6195,-15.02765 -11.05531,-31.38874 -27.26975,-36.35209 -5.06254,-1.54933 -5.20953,-9.66638 0.68663,-9.84841 17.46591,-0.53972 30.49709,15.15041 37.05678,29.78651 5.81006,12.96398 12.70782,25.39671 19.89533,37.62626 3.40584,5.79728 6.79906,11.6369 10.72354,17.01722 2.70241,3.704 9.82483,11.39985 10.47576,15.90603 1.40265,9.72987 7.24002,18.61734 14.84119,24.67497 4.75808,3.79078 11.97081,8.50439 18.25122,8.68853 5.71558,0.16509 12.72672,-3.63416 13.11308,-9.89073 0.56273,7.23443 7.3408,12.71846 14.39604,14.16408 5.31661,1.09003 13.97397,1.1239 18.96513,-1.38424 2.97118,-1.49218 7.06154,-8.78377 10.91041,-7.51594 1.07299,0.35558 1.79951,1.33132 2.55123,2.18006 2.05147,2.31765 4.72659,3.98975 7.49618,5.35281 5.5224,2.71556 15.94148,6.75821 22.1295,4.52312 9.07102,-3.1918 13.09838,-15.25201 18.98404,-22.13721 0.42206,8.63984 7.60117,16.44151 16.11575,17.51885 8.51458,1.07521 17.38402,-4.69879 19.91004,-12.96611 7.02584,-0.82123 10.88102,2.50601 17.5037,4.43209 7.07834,2.05308 15.6748,0.73869 21.1405,-4.53156 0.9281,-0.8932 1.8457,-1.92821 3.09717,-2.20336 1.38375,-0.30479 2.7591,0.40215 4.10295,0.85086 0.26668,0.0889 0.53124,0.16933 0.78951,0.24129 11.86162,3.31878 14.34565,-10.83895 16.32993,-19.26502 0.0567,-0.24552 0.10503,-0.4974 0.16379,-0.7408 4.30243,-1.64457 7.61167,-6.19308 9.53926,-10.2442 1.55593,-3.26799 2.42314,-6.70317 3.02997,-10.20398 0.77061,-4.43422 4.07985,-7.64505 3.76489,-12.77562 -0.50184,-8.23558 -2.80739,-17.3199 0.79791,-25.18083 2.736,-5.96451 11.0385,-9.72353 16.23545,-13.33652 0.7811,4.15271 1.06457,8.38162 0.94488,12.65709 z m -274.70896,31.1792 c -0.0357,0.45718 -0.0672,0.91435 -0.0924,1.36942 -0.33807,-0.81276 -0.65303,-1.63823 -0.9512,-2.47004 0.34436,0.37252 0.69292,0.73868 1.04359,1.10062 z m 3.78379,-0.14181 c 0.48084,-6.78784 2.97957,-12.90261 8.75185,-10.41353 1.55593,0.67095 3.08247,1.49854 4.5502,2.34093 5.20114,2.97802 10.50727,6.64391 13.84381,11.76601 0.96168,1.47525 6.25521,17.10612 4.15544,17.30085 -5.22844,0.48681 -10.52616,0.9715 -15.70629,0.10788 -5.18015,-0.86144 -10.31828,-3.24047 -13.45114,-7.48842 -1.59583,-2.16525 -2.53443,-8.1107 -2.14387,-13.61377 z m 36.29035,33.03331 c 1.51185,6.22271 -1.03308,17.48922 -7.65156,19.53171 -5.32922,1.64457 -12.19128,-1.13871 -15.6559,-5.33799 -5.62949,-6.82594 -4.6888,-13.50584 -5.05415,-21.76893 5.88356,0.69635 21.65074,-0.29843 26.84348,4.92315 0.74332,0.74926 1.27037,1.62552 1.51813,2.65206 z m 7.5256,-40.51327 c 4.78117,-5.38456 12.13037,-5.9645 16.76247,0.16297 2.07668,2.74942 3.30924,6.05763 4.81688,9.17745 -0.10078,0.14605 -0.16169,0.32596 -0.14489,0.53762 0.23308,3.10712 1.9003,5.93274 2.67721,8.96155 1.46355,5.70839 4.89877,14.87102 -2.58061,16.51772 -4.76229,1.04981 -10.81803,-0.66249 -15.41653,-1.94937 -8.91984,-2.50179 -8.80644,-8.48109 -9.92773,-16.61718 -0.8189,-5.94122 -0.32336,-12.13219 3.8132,-16.79076 z m 29.31071,40.42437 c 0.54594,0.25822 0.77271,0.90378 0.947,1.48583 1.10447,3.67014 2.21945,7.43975 1.95908,11.26651 -0.42835,6.27775 -5.52659,12.32691 -12.10308,11.37445 -5.82267,-0.84663 -9.35869,-6.54232 -12.98919,-10.59344 -2.12497,-2.36844 -4.77908,-3.91565 -4.13025,-7.65987 0.0693,-0.38944 2.01578,-4.65434 2.21526,-4.55697 1.18847,0.57148 2.42523,1.03712 3.69139,1.39271 6.09564,1.71653 12.88631,0.94187 18.37931,-2.24992 0.62783,-0.36405 1.37535,-0.7662 2.03048,-0.4593 z m 14.86848,-3.24682 c 2.25306,3.13888 3.95807,2.57163 7.25471,2.60973 4.48932,0.0529 8.90723,1.12813 13.36925,0.59476 5.72609,-0.68154 11.45637,-2.08482 17.12995,-3.11982 0.34856,-0.0656 0.73702,-0.12277 1.03938,0.0656 0.33387,0.20954 0.44305,0.64343 0.51654,1.035 1.05619,5.65548 1.79111,15.74516 -2.63521,20.08201 -3.33654,3.27011 -7.3786,6.29045 -11.90991,7.57521 -8.03792,2.27955 -17.09844,-2.65417 -21.07961,-9.72563 -3.09716,-5.50097 -5.01215,-12.81796 -3.6851,-19.11687 z m 52.84916,-28.05302 c -0.33176,-3.85004 -1.93599,-6.63121 -0.60263,-10.50665 3.12866,-9.0949 12.60703,-9.61558 18.82655,-4.46385 7.4269,6.15288 12.63853,15.39382 12.29207,25.27609 -0.34226,9.76161 -10.74453,12.25917 -19.3767,12.15545 -5.76387,-0.0677 -12.17657,-0.13546 -12.38235,-7.79321 -0.13228,-4.8935 1.67352,-9.66848 1.24306,-14.66783 z m 35.28878,25.97244 c 1.35435,6.13381 -0.23518,12.90684 -5.47411,16.68703 -3.704,2.67323 -7.19382,6.49152 -11.0805,8.8007 -3.47513,2.06366 -8.48518,2.11234 -11.0784,-1.00114 -1.63362,-1.96206 -1.97799,-4.69666 -1.95908,-7.25983 0.0315,-4.46385 2.7255,-9.45895 2.03048,-13.64341 1.47614,-0.10373 2.91238,-0.37675 4.38222,-0.53973 0.44725,-0.0487 0.8945,-0.0762 1.34805,-0.0656 3.49612,0.0889 6.63948,1.26783 10.24899,0.86356 3.86988,-0.43177 7.4143,-3.36535 11.58235,-3.84157 z m 26.6062,21.02812 c -0.78741,0.91012 -1.63152,1.7758 -2.53863,2.58222 -0.11127,0.0381 -0.22677,0.0677 -0.34015,0.10159 0.905,-0.95034 1.852,-1.86258 2.87878,-2.68381 z M 570.0743,731.60937 c 0.33386,-2.33669 0.66772,-4.67339 1.00368,-7.00796 0.18058,-1.26995 0.36327,-2.53989 0.54385,-3.80984 8.78755,4.17176 20.11161,2.06366 26.83929,-4.99933 -1.85201,1.8647 1.36484,12.50046 0.13437,15.87427 -1.7596,4.81732 -6.93344,9.6812 -11.97499,10.54053 -4.11975,0.70058 -14.45273,1.19585 -16.34253,-3.6257 -0.85671,-2.18853 -0.53753,-4.64163 -0.20367,-6.97197 z M 599.49,712.70628 c -0.82731,0.62227 -1.71971,1.15353 -2.67511,1.55568 -2.47353,1.03712 -5.07515,1.28899 -7.60327,0.79583 2.00528,-0.38522 3.98747,-0.82335 5.92556,-1.2763 1.45513,-0.34076 2.90188,-0.71539 4.35282,-1.07521 z M 574.71479,679.6645 c 1.49714,-3.44578 3.31764,-5.44382 5.30193,-6.36241 8.02532,-3.71458 18.75306,10.22304 21.83972,17.48076 0.28347,0.66459 1.05199,0.85509 1.60213,0.62227 0.66143,2.57798 1.41525,5.16443 2.29505,7.67891 0,0 -0.72652,0.12699 -0.72442,0.14393 0.32966,1.94725 0.17638,3.95164 -0.36536,5.85231 -0.64463,-0.0127 -1.28716,0.32596 -1.37745,1.08369 -0.009,0.0699 -0.0169,0.14181 -0.0252,0.21166 -0.35277,2.85948 -17.39662,3.8712 -20.12422,3.63203 -14.20285,-1.25089 -12.82751,-20.20478 -8.42218,-30.34315 z m 36.17067,30.15901 c 0.18898,0.28574 0.37376,0.57994 0.57325,0.85722 0.7958,1.12178 2.27824,0.46775 2.34964,-0.70271 3.13495,1.45408 6.3308,1.62341 9.67785,1.67633 -0.28767,3.61721 -2.00109,8.15937 -3.59901,12.25493 -0.67613,1.72713 -1.33126,3.37594 -1.8499,4.8406 -2.00318,5.64701 -5.5539,8.22076 -10.38758,3.27222 -2.29295,-2.34728 -3.31134,-5.7232 -3.43942,-9.01448 -0.21207,-5.45862 0.87141,-11.69405 6.67517,-13.18411 z m 21.83763,-1.83295 c -0.8756,2.4531 -2.03467,4.82366 -3.62211,6.84711 -0.73282,0.93128 -1.53283,1.6869 -2.37274,2.35574 0.45775,-2.27955 0.87561,-4.57179 1.25567,-6.8725 1.7911,-0.67307 3.35753,-1.4562 4.73918,-2.33035 z M 611.90175,674.6694 c 0.0525,-0.75351 0.17218,-1.49642 0.44516,-2.20335 0.74961,-1.93243 2.60791,-3.17909 4.51451,-3.61087 5.30402,-1.20433 11.79652,3.97915 14.38344,8.03238 4.4956,7.04184 6.09144,15.90814 2.03467,23.52144 -0.52494,-0.055 -1.31025,0.80007 -2.17746,1.36943 0.021,0.2815 0.0273,0.56301 0.0504,0.84239 -0.1029,0.0826 -0.21208,0.16086 -0.31917,0.24129 0.10915,-0.30055 0.1029,-0.61804 0.0357,-0.91647 0.53124,2.32822 -7.90984,-0.46142 -8.37179,-0.56725 -3.63681,-0.83181 -6.5555,-0.2561 -8.76445,-4.14001 -1.78271,-3.1304 -1.8373,-6.92754 -1.8457,-10.5384 -0.009,-3.41614 -0.0167,-6.83229 -0.0252,-10.24843 -0.002,-0.59265 -0.002,-1.18952 0.0399,-1.78215 z m 94.96429,-66.19362 c 6.55549,-8.18901 13.06058,-16.45422 18.67117,-25.34381 2.59952,-4.11673 5.00166,-8.36257 7.09304,-12.76504 1.47613,-3.10288 2.58061,-6.30738 3.71238,-9.50763 1.19058,-9.72775 2.06198,-19.48726 2.63733,-29.23618 2.6415,-44.90093 -0.52495,-89.85687 -3.79219,-134.63715 -0.9554,-0.091 -1.915,-0.16298 -2.88719,-0.19261 -3.83209,-0.12276 -7.60748,0.0973 -11.36607,0.52915 0.90921,25.9809 1.8205,51.9618 2.72971,77.9427 -0.14909,2.45733 -0.30237,4.92314 -0.45566,7.3953 -1.09187,17.61409 -2.21945,35.82506 -1.7974,54.55036 0.30866,13.69844 -0.68453,24.95012 -3.04257,34.39638 -2.7801,11.13104 -7.3765,19.78781 -14.04957,26.4677 -6.85996,6.86827 -16.08846,11.16279 -24.94529,14.76731 -7.73556,3.14735 -17.32522,2.43618 -23.91431,8.5192 -7.57597,6.99526 -14.7005,14.75884 -21.66754,22.37003 -5.29773,5.78458 -5.47621,17.88079 -7.09093,25.3946 -2.60792,-6.7963 -13.29366,-4.74958 -17.33992,-0.22011 -2.09767,2.34939 -3.31134,11.23264 -7.00485,11.03156 -3.05936,-0.16721 -6.36229,-6.01317 -9.29988,-7.57097 -4.17225,-2.20971 -9.82063,-3.4098 -14.47793,-2.36844 -9.67994,2.16101 -9.45317,11.41466 -15.30313,17.96756 -4.24785,-3.93047 -7.3597,-8.71181 -12.70993,-11.46123 -14.27215,-7.33392 -24.65342,5.9772 -31.49658,16.57486 0.73913,-1.14294 -10.41697,-8.28425 -12.12407,-8.14879 -2.07879,0.16721 -5.11505,2.09541 -3.23156,4.64587 0.68873,0.93341 3.39113,0.005 4.48302,0.67095 2.08927,1.27629 2.7234,3.63627 3.16645,5.9137 1.08768,5.58986 1.65252,11.28132 1.68402,16.97701 0.009,1.22126 -0.021,2.48697 -0.55225,3.58335 -0.74541,1.53663 -2.38533,2.47427 -4.05465,2.79387 -7.71876,1.48372 -24.47495,3.53679 -28.94326,-4.99298 -1.12548,-2.15044 -1.60423,-4.57392 -2.06827,-6.95717 -0.57535,-2.94838 -1.15488,-5.93698 -0.9575,-8.93404 0.8798,-13.34498 14.89368,-18.69567 25.80829,-12.25706 1.08348,0.6392 2.42944,-0.83816 1.65673,-1.85835 -5.96755,-7.8821 -17.74308,-5.67241 -24.70592,-0.27939 -6.68987,6.7434 -7.06153,17.87444 -14.13566,23.33307 -5.67149,-11.12046 -18.27222,-38.30568 -34.02471,-23.80717 -5.25573,4.83635 -7.03844,11.70886 -6.4967,18.68931 -2.54282,-3.66167 -5.66518,-6.98045 -8.69725,-9.81454 -5.46571,-5.10728 -13.90259,-11.97133 -21.55206,-12.69518 -6.45679,-0.60959 -7.91404,4.35589 -8.65946,9.5182 -0.0252,-0.0254 -0.0503,-0.0508 -0.0734,-0.0762 -1.60633,-1.79908 -3.12025,-3.67859 -4.567,-5.61103 -0.34436,-1.81389 -0.64253,-3.64896 -0.905,-5.50308 -0.0483,-2.59491 -0.0609,-5.20041 -0.0588,-7.77415 0.01,-17.91466 0.0231,-36.44099 -15.20655,-49.78597 -25.27076,-22.14144 -59.50755,-13.75347 -69.1665,-46.24706 -1.57062,20.0926 -3.15175,40.1852 -4.73288,60.2778 -0.54384,6.91272 -1.08768,13.82756 -1.63153,20.74028 9.60646,16.71667 16.68479,34.88107 19.56568,56.00445 2.32235,17.04685 1.69032,31.57287 12.9409,45.05754 17.5499,21.03659 50.40502,36.87065 72.62271,52.8442 24.8424,17.86172 46.44066,32.25038 77.06583,29.16887 35.49874,-3.57087 70.47045,-14.28261 106.22116,-15.40461 5.80378,-0.18203 11.84902,1.14083 17.78928,1.65516 6.85575,-5.27492 13.85849,-9.9519 20.1977,-15.88084 1.02469,-1.01363 2.04308,-2.03381 3.07406,-3.03918 0.1365,-0.43009 0.26668,-0.86336 0.40526,-1.29323 5.78488,-18.07127 11.78603,-36.14678 18.69008,-53.82015 9.75553,-24.9734 20.26699,-49.5743 31.95852,-73.62701 0.69503,-6.19731 2.31605,-12.30784 4.51871,-18.14959 7.17282,-19.02584 19.95834,-34.8599 32.49397,-50.52041"
         style="fill:#ffffff;fill-opacity:1;fill-rule:nonzero;stroke:none;stroke-width:0.210816" />
      <path
         id="path29"
         d="m 226.76787,667.6572 c -2.50083,-10.52358 -3.65359,-21.37101 -3.42262,-32.1888 0.0293,-1.37577 0.0945,-2.80446 0.71812,-4.03207 1.92549,-3.78654 13.20967,-5.22369 17.11104,-5.93697 4.81688,-0.88049 11.0826,-2.09329 13.45534,2.12292 3.07827,5.47556 3.00477,16.00973 4.18274,22.25361 1.32916,7.05877 2.66041,14.11964 3.98958,21.17841 -0.67403,0.21166 -1.34596,0.42543 -2.01578,0.64132 -6.80537,2.19276 -24.9495,10.02196 -30.77427,3.46906 -1.82679,-2.0552 -2.60581,-4.82366 -3.24415,-7.50748 z m -6.13552,-52.90579 c 9.46367,-3.08596 19.44808,-5.18348 29.18892,-7.20057 6.62059,-1.37153 9.41118,8.89383 2.79269,10.21457 -10.16079,2.02978 -20.58406,4.05957 -30.91283,4.95488 -4.74128,0.41062 -5.16124,-6.63332 -1.06878,-7.96888 z m 39.5828,72.91584 c 13.48473,-16.85001 12.95139,-40.59793 14.34354,-61.07786 1.56642,-23.03252 3.13285,-46.06503 4.69718,-69.09755 3.14546,-46.26823 5.47831,-92.69096 9.93192,-138.85124 0.0189,-0.18837 0.0967,-0.3323 0.19318,-0.45295 -4.03366,0.64132 -8.05262,1.35673 -12.05059,2.1441 -5.11294,1.00959 -10.19229,2.16948 -15.25484,3.41191 -2.55962,18.46706 -5.82267,36.82831 -9.83743,55.03081 -1.7848,8.08531 -3.71239,16.13886 -5.78277,24.15642 -1.02889,3.9855 -2.00528,8.01123 -3.20635,11.95015 -0.75382,2.4637 -1.73022,5.0967 -3.83419,6.72011 -4.80637,3.70612 -10.71513,-0.13122 -14.91048,-2.89334 -5.41321,-3.56219 -10.59754,-7.47997 -15.52571,-11.69617 -19.12472,-16.36109 -35.42105,-38.31627 -43.89784,-62.33722 -7.06362,0.52914 -14.14301,0.69211 -21.12559,0.33865 5.6677,37.05691 27.4732,71.27338 41.09653,105.70574 11.18968,28.28374 12.50624,62.04091 18.10843,92.38829 2.67301,14.48158 5.49721,29.35895 13.31886,41.80226 3.88877,6.18462 9.33138,11.6623 15.59919,15.36418 1.05409,0.1778 2.11868,0.29844 3.18746,0.345 9.94873,0.42121 18.88325,-5.37185 24.9495,-12.95129"
         style="fill:#ffffff;fill-opacity:1;fill-rule:nonzero;stroke:none;stroke-width:0.210816" />
      <path
         id="path31"
         d="m 737.81458,397.29287 c 1.93809,26.58412 3.83418,53.18095 4.49981,79.8328 0.64463,25.86872 0.0965,51.89619 -2.66881,77.64638 0.51654,0.12064 0.9449,0.60534 0.83361,1.34401 -0.33387,2.22664 -0.9764,4.44904 -1.76171,6.63546 -2.15227,17.09342 -5.33342,34.04503 -9.85002,50.72572 -5.63999,20.82916 -13.35456,41.13766 -23.54265,60.14868 -4.39272,8.19749 -9.2579,17.36435 -17.63809,22.06525 -3.78798,2.12715 -8.2605,3.09867 -12.46844,2.53353 0.69502,3.06056 1.61053,5.46711 2.79269,6.9614 0.33177,0.41909 0.68243,0.77679 1.05618,1.0477 3.45623,2.49544 8.04633,2.49756 12.0758,0.92918 1.57483,-0.61381 3.06567,-1.45831 4.36752,-2.49967 28.84667,-23.07908 43.39389,-95.19698 47.08739,-129.36053 6.26362,-57.96016 5.09825,-116.44734 3.54232,-174.63609 -2.09978,-1.01172 -4.18905,-2.03826 -6.27833,-3.06903 -0.68032,-0.11003 -1.36274,-0.20953 -2.04727,-0.30479"
         style="fill:#ffffff;fill-opacity:1;fill-rule:nonzero;stroke:none;stroke-width:0.210816" />
      <path
         id="path32"
         d="m 293.80519,565.49036 c -0.18268,-1.36307 -0.33386,-2.77906 -0.45145,-4.25431 -3.74178,-46.96034 3.7649,-96.96643 6.16284,-144.02413 0.009,-0.15662 0.0126,-0.31537 0.021,-0.47199 -3.00477,0.37251 -6.00325,0.80429 -8.99752,1.26993 0.17218,0.12912 0.28977,0.3323 0.27927,0.63074 -1.11078,28.10593 -3.32814,56.17166 -5.23473,84.23315 -1.70082,25.00515 -3.39953,50.01243 -5.10035,75.0197 -1.67351,24.61148 -2.56592,49.4325 -5.20953,73.96144 -2.00108,18.5729 -8.23741,39.6624 -26.35424,48.41442 -3.41843,1.65093 -7.24422,2.56952 -11.11619,2.76424 4.80217,1.83931 9.91512,2.62243 15.08055,1.90703 13.14668,-1.81813 23.62034,-12.76715 28.75008,-25.10252 2.12288,-5.10305 3.47933,-10.4368 4.40533,-15.87851 2.12707,-27.05188 4.24573,-54.10377 6.3938,-81.15565 0.45776,-5.77188 0.9155,-11.54377 1.37115,-17.31354"
         style="fill:#ffffff;fill-opacity:1;fill-rule:nonzero;stroke:none;stroke-width:0.210816" />
      <path
         id="path33"
         d="m 733.46805,385.93113 c -0.83571,0.19684 -1.18847,-1.0858 -0.35486,-1.29534 11.37237,-2.85526 22.71953,-5.81634 34.1066,-8.61232 5.95284,-1.46256 11.92671,-3.08597 17.92995,-4.56333 2.19637,-5.98778 3.61161,-12.93648 4.97436,-20.71276 -1.24306,0.4212 -2.48613,0.83816 -3.7313,1.2509 -65.48769,21.73929 -134.54499,32.43431 -203.4805,31.76971 -68.33288,-0.65825 -135.86994,-9.57536 -204.4359,-9.54361 -24.15998,0.0101 -48.40814,1.66785 -72.03268,7.00161 -23.46285,5.29778 -46.21808,13.30899 -69.31767,19.94656 -38.32084,11.00828 -82.79758,18.90732 -120.48933,2.52083 -1.66175,3.21296 -3.22924,6.60794 -3.86652,10.07064 8.09484,4.87235 16.56279,8.87267 25.7535,11.50779 11.71273,3.35901 23.588,4.14637 35.70368,3.88391 0.70343,-0.0148 0.88401,1.162 0.17008,1.25936 -20.78416,2.82351 -44.07442,-3.13888 -61.85277,-15.00859 -0.13607,1.46678 -0.0877,2.94203 0.21817,4.41728 1.04253,5.02473 4.69991,8.72662 9.09138,11.57976 11.78895,2.34939 23.71188,3.46059 36.25949,2.82561 21.56886,-1.09426 42.62327,-5.99412 63.36272,-11.80623 19.97724,-5.60044 39.82218,-11.73637 60.07028,-16.30182 8.2773,-1.86682 16.61969,-3.37804 25.04817,-4.30934 31.60577,-9.52668 68.89982,-5.53272 99.82106,-3.1304 5.16964,0.40214 10.27419,0.64767 15.33674,0.86356 -0.47455,1.44984 0.19318,3.25316 2.07668,3.83098 12.06948,3.7019 23.62663,7.18153 33.9617,14.78636 -0.26456,0.38946 -0.33176,0.8932 0.0189,1.3525 1.17796,1.53663 2.32024,3.10713 3.44362,4.69666 3.24205,2.20336 6.34341,4.60989 9.27469,7.21962 -0.8903,-1.4435 -1.8121,-2.87006 -2.7948,-4.24795 2.28455,2.47428 4.43892,5.0586 6.5219,7.71701 0,0.0276 0.0147,0.055 0.0168,0.0826 4.49352,4.49347 8.54607,9.48434 12.03799,14.97261 6.08304,9.56054 10.49256,20.27251 12.8926,31.36757 0.72442,3.35688 1.59793,7.35508 2.18586,11.49721 1.79111,-16.20446 -4.02946,-32.86186 -13.66951,-46.17086 1.03518,-0.84875 1.66721,-2.27954 1.31446,-3.97069 -3.73549,-17.8956 -20.65966,-34.07678 -39.29094,-41.36412 7.3408,0.82969 14.65011,2.11022 21.98041,4.28393 28.13275,8.34775 57.60515,11.7512 86.87807,9.64944 11.26948,-0.81064 22.47386,-2.41289 33.63835,-4.39188 -1.8373,2.99706 -3.34493,6.10843 -4.37383,9.22613 -0.30237,0.92071 1.13388,1.64245 1.69452,0.86779 2.59322,-3.59182 4.84837,-7.37201 7.41849,-10.95748 9.35029,-1.74194 18.67537,-3.71035 27.99417,-5.66817 16.18293,-3.39922 32.34489,-6.75186 48.57822,-8.81976 13.72621,-1.74828 27.50281,-2.57798 41.3823,-1.71442 1.96329,0.12276 3.92868,0.28151 5.89406,0.45295 0.007,0.15239 0.01,0.3069 0.0169,0.46142 3.80688,-0.45931 7.65577,-0.6117 11.45636,-0.50376 0.884,0.0254 1.789,0.0593 2.70451,0.10159 -0.002,-1.00537 1.16117,-1.4308 1.95278,-1.0477 0.968,0.472 1.93809,0.93341 2.90819,1.39905 2.20265,0.22647 4.41162,0.56089 6.54499,1.06252 2.29084,-0.0741 4.5775,-0.23282 6.86205,-0.5249 17.60239,-2.41925 25.96578,-9.81454 30.81625,-21.06835 -5.45941,1.28899 -10.9461,2.48062 -16.35302,3.78443 -11.40596,2.75154 -22.84973,5.33376 -34.26829,8.02392"
         style="fill:#ffffff;fill-opacity:1;fill-rule:nonzero;stroke:none;stroke-width:0.210816" />
      <path
         id="path34"
         d="m 715.06984,241.80328 c -3.5864,-0.82546 -7.20851,-1.14506 -10.82431,-1.49006 1.00789,5.29142 1.87929,10.65905 2.46933,16.02243 2.11657,-3.02881 5.86676,-4.15694 9.41747,-3.41403 6.80326,1.42868 13.04588,4.02572 18.4402,7.81226 -0.30236,-2.00015 -0.55434,-4.01301 -0.80001,-6.02587 -7.82165,-2.03402 -15.75039,-3.38016 -24.04239,-3.40133 -0.87981,-0.002 -0.87561,-1.36095 0,-1.37365 7.88044,-0.12911 15.98556,0.50798 23.75052,2.37479 -0.24567,-2.1843 -0.47664,-4.37284 -0.68033,-6.5656 -5.98854,-0.0148 -11.9351,-2.6055 -17.73048,-3.93894"
         style="fill:#ffffff;fill-opacity:1;fill-rule:nonzero;stroke:none;stroke-width:0.210816" />
      <path
         id="path35"
         d="m 278.26058,308.62128 c 6.89776,11.3427 15.16875,20.89267 26.6776,27.69109 5.64209,3.3336 11.72724,5.88195 18.06434,7.52018 3.18956,0.82334 6.44,1.42233 9.71775,1.75464 2.7759,0.27938 5.70718,0.0381 8.42009,0.71328 0.69292,0.17144 0.65512,1.18528 0,1.37577 -3.09507,0.90166 -6.71508,0.32384 -9.86473,-0.0677 -3.14126,-0.38733 -6.25523,-0.98844 -9.31459,-1.80543 -6.33501,-1.69538 -12.44746,-4.29029 -18.09794,-7.63659 -11.14139,-6.60158 -21.65915,-16.69763 -26.78889,-28.84674 -0.33806,-0.79794 0.70972,-1.47947 1.18637,-0.69846 z m 251.61778,-11.5988 c 3.80059,9.67484 7.60327,19.34968 11.38076,29.033 3.7628,9.65155 7.87415,19.25231 10.92932,29.15999 0.22468,0.73233 -0.90921,1.22761 -1.23676,0.52701 -4.31923,-9.26846 -7.68098,-19.01102 -11.31567,-28.56522 -3.7712,-9.90555 -7.51509,-19.82168 -11.26109,-29.73781 -0.35906,-0.95246 1.14018,-1.34403 1.50344,-0.41697 z m 143.82179,39.6603 c 12.22486,-2.24781 24.47704,-4.30511 36.72291,-6.42591 6.3455,-1.09851 12.72461,-2.00439 19.09113,-2.9759 5.03104,-0.77043 9.82693,-1.94725 14.88318,-1.22126 3.08246,0.44236 3.57801,5.48192 0.8756,6.75397 -5.32712,2.50391 -11.47736,2.67112 -17.26643,3.51351 -5.4825,0.79795 -10.9587,1.63822 -16.4559,2.32611 -12.32357,1.54298 -24.63244,3.15581 -36.97069,4.57602 -3.7166,0.42755 -4.49982,-5.88195 -0.8798,-6.54654 z m 1.09818,-12.70366 c 9.59805,-4.42786 18.24491,-9.59653 25.41144,-17.57388 3.51291,-3.90931 6.53029,-8.24405 9.00172,-12.89415 2.58482,-4.86388 4.04626,-9.97116 5.87516,-15.12924 0.25827,-0.72599 1.53283,-0.67307 1.42995,0.19684 -1.22837,10.40294 -7.56969,20.75085 -14.32466,28.45305 -7.04053,8.02604 -16.5525,15.21603 -26.97787,17.94005 -0.57533,0.15027 -0.98269,-0.73022 -0.41574,-0.99267 z M 182.79025,394.3974 c 8.72875,-0.42543 16.94726,-2.49331 25.48914,-4.04899 0.64673,-0.11641 1.17587,0.8551 0.48295,1.15352 -7.69148,3.30821 -16.6407,4.40671 -24.9285,4.92951 -8.61746,0.54183 -17.27483,0.0276 -25.781,-1.43927 -10.92259,-1.88587 -21.54702,-5.43536 -31.379,-10.54052 -2.12937,4.15694 -4.30201,8.33505 -6.52083,12.55548 46.50469,17.45537 96.88453,1.02231 142.72044,-13.6815 22.01191,-7.06088 44.2968,-13.30265 67.2452,-16.33146 23.19618,-3.06055 46.60444,-3.19813 69.95601,-2.68593 31.76324,0.69636 65.24831,0.30267 96.42362,5.00569 32.05513,4.83636 63.89606,7.98371 96.36274,7.32122 65.50658,-1.33767 130.7864,-15.34514 190.98686,-41.46572 -17.89846,-12.40311 -37.46623,-32.31157 -44.48787,-53.54288 -0.17008,-0.51856 -0.31496,-1.04347 -0.47875,-1.56415 -7.43739,-5.04379 -16.14934,-9.03775 -25.06917,-9.86745 -2.59112,-0.23916 -4.79169,-1.20432 -6.38121,-2.92297 0.0735,31.35063 -18.92945,52.29621 -50.6696,60.69687 -19.15202,5.06919 -36.88879,-6.19096 -53.33841,-0.12911 -15.51731,5.72109 -24.96209,14.01382 -39.5954,-0.4593 -6.70037,-6.62486 -11.25057,-15.1123 -17.18244,-22.44411 -2.35803,-2.9124 -8.78964,-9.60499 -14.62281,-13.72172 3.67461,6.34971 7.54239,12.55126 11.91411,18.48189 3.11186,4.22257 6.4253,8.29907 9.89833,12.2232 3.26094,3.68917 7.03004,7.03759 10.05581,10.91727 0.45565,0.58417 -0.14699,1.64245 -0.86301,1.12812 -4.01897,-2.88276 -7.38279,-6.8852 -10.63745,-10.58919 -3.20004,-3.63627 -6.23212,-7.41647 -9.113,-11.31307 -5.26834,-7.12649 -10.1461,-14.70381 -14.12307,-22.67482 -1.8373,-1.02654 -3.51922,-1.64669 -4.87147,-1.61918 -1.56433,0.0339 -2.96488,0.44448 -4.25624,1.10697 -0.15328,4.74958 -1.21367,9.63675 -2.14386,14.24451 -1.0268,5.08824 -2.30346,10.12145 -3.809,15.08903 -2.96488,9.77856 -6.56808,20.23442 -11.97289,28.94833 -0.68033,1.09428 -2.15647,0.13971 -1.67353,-0.98632 4.15335,-9.68754 8.74556,-18.94753 11.86792,-29.07743 1.46984,-4.76652 2.72971,-9.59865 3.79428,-14.47311 0.91551,-4.19716 1.42575,-8.50862 2.27616,-12.7227 -5.24103,3.92411 -8.38439,12.43697 -12.08629,18.35489 -4.41162,7.04818 -8.49778,15.5695 -14.42544,21.67156 -0.042,0.20532 -0.10502,0.41485 -0.19527,0.62651 -2.54072,5.92216 -13.02278,8.19959 -18.71947,9.38064 -6.07674,1.25936 -12.20807,1.7758 -18.12523,0.37251 -33.1659,15.38747 -71.90459,13.74924 -106.34505,2.1843 -15.89737,-5.33799 -31.08713,-12.68249 -43.97552,-23.37328 -6.75287,-5.60256 -13.45114,-17.8067 -21.60246,-20.86938 -11.20019,-4.20562 -13.31045,7.58578 -19.01763,14.42231 -8.42009,10.08122 -18.29531,12.70154 -30.48029,16.56004 -12.51884,3.96433 -24.27757,9.28539 -37.18067,12.5555 -16.46221,4.17176 -35.54284,9.02294 -53.08454,8.20382 -4.78517,11.05062 -10.03607,21.87052 -15.6202,32.82589 9.48907,4.69244 19.5917,8.0599 30.07314,9.95423 8.30039,1.49853 16.78767,2.04249 25.20986,1.62975"
         style="fill:#ffffff;fill-opacity:1;fill-rule:nonzero;stroke:none;stroke-width:0.210816" />
      <path
         id="path36"
         d="m 214.44431,157.6675 c 7.60328,-11.60092 16.84647,-22.02714 27.20045,-31.2046 9.90463,-8.77953 21.77464,-18.91155 34.64833,-22.63671 3.58012,-1.03501 7.07834,4.11673 3.86568,6.6926 -10.46106,8.39008 -22.49485,14.28473 -32.69764,23.20184 -9.83953,8.59751 -18.70897,18.42897 -26.57471,28.88272 -15.95198,21.2038 -25.95529,47.1339 -30.54119,73.2566 -0.41156,2.35575 -4.33393,1.79273 -4.12815,-0.563 2.46094,-28.17367 12.8086,-54.10165 28.22723,-77.62945 z m 141.50574,-6.27563 c -2.24676,1.93243 -4.58381,3.73998 -7.01955,5.39725 -0.95748,0.24341 -1.91918,0.47411 -2.87458,0.72599 -0.16168,-0.63286 -0.31076,-1.26783 -0.46194,-1.90279 3.42052,-1.48372 6.87465,-2.88701 10.35607,-4.22045 z M 345.3126,66.762934 c -0.8756,0.281497 -1.20317,-1.049828 -0.37376,-1.367303 10.31199,-3.926239 20.93683,-7.122262 31.59107,-9.950002 10.1944,-2.704977 20.81084,-5.625843 31.3202,-6.690478 0.66143,-0.06772 0.75592,0.971506 0.15328,1.136599 -10.41907,2.857369 -21.14469,4.669152 -31.59946,7.456678 -10.47367,2.795985 -20.77305,6.095722 -31.09133,9.414506 z M 464.1639,56.453119 c 16.96195,-0.419083 33.9743,0.761962 50.78088,3.049976 15.88687,2.163139 33.53757,3.966446 47.34566,12.726934 2.36645,1.500649 1.46564,5.401485 -1.45094,5.39091 -15.96877,-0.06143 -31.64777,-5.659718 -47.38976,-8.100113 -15.91837,-2.465808 -31.98162,-3.555844 -48.07638,-3.81618 -16.58399,-0.268807 -33.0987,0.872021 -49.51262,3.289151 -16.00656,2.357854 -31.64146,6.523268 -47.57663,9.183792 -2.42314,0.406383 -4.43472,-3.147334 -1.8184,-4.343198 C 396.16278,60.277759 431.9387,57.246829 464.1639,56.453119 Z M 193.60198,274.56779 c 8.01062,-1.92185 15.92887,-4.19081 23.71692,-6.81325 15.60761,-5.2512 27.39572,-6.58676 43.2784,-2.37902 18.55989,4.9168 13.18867,-13.45292 17.07115,-27.35243 9.92142,-35.52452 37.32345,-59.1412 70.28777,-74.75726 -0.0693,-0.15239 -0.12809,-0.30902 -0.19108,-0.46564 1.56852,-0.75562 3.11396,-1.55568 4.64049,-2.38114 2.22996,-0.81912 4.46831,-1.61918 6.72347,-2.37903 0.0189,0.0953 0.042,0.1926 0.0588,0.28997 1.57064,-0.6392 3.15387,-1.26147 4.74129,-1.86893 1.48874,-0.47412 2.97748,-0.944 4.47462,-1.39482 0.33806,-0.10158 0.55434,-0.29844 0.69922,-0.52491 23.8765,-8.55942 49.20606,-13.72807 72.13347,-16.76112 21.18879,-2.80234 42.58967,-3.89026 64.01575,-2.84679 39.84737,1.9409 77.22961,3.31456 116.11319,11.63056 -0.0567,-0.21801 -0.10715,-0.44025 -0.15959,-0.66038 5.18854,2.18643 10.37917,4.37073 15.56771,6.55503 0.69502,0.29208 1.28086,-0.16934 1.51604,-0.77891 0.62153,0.23918 1.24307,0.47835 1.8667,0.71753 0.59003,0.22646 1.14018,-0.10586 1.43204,-0.59688 11.51095,3.6405 22.66704,8.55094 32.2126,15.60758 15.56142,11.50357 20.2586,27.92604 24.38675,45.63961 0.87981,3.77596 1.81421,7.70643 2.74231,11.72791 9.49517,-2.05518 21.993,-0.31324 30.50969,5.11576 -0.56694,-6.53809 -1.21367,-13.0423 -2.21317,-19.44281 -7.23161,-46.3148 -33.42626,-89.32562 -71.12767,-116.783879 -17.97405,-13.09311 -37.23946,-21.77316 -57.27338,-27.815973 0.75172,1.081575 1.47614,2.116575 2.17116,3.08385 6.3707,8.85996 11.84902,18.365478 16.35722,28.321818 2.26146,4.992994 4.31713,10.083344 6.12715,15.260484 7.45838,1.34825 14.75299,4.13365 21.44916,7.61753 7.16653,3.72517 14.79919,8.55517 20.05072,14.83081 0.58374,0.69846 -0.22048,2.00227 -1.04358,1.36518 -6.4337,-5.00145 -12.40336,-10.17224 -19.61607,-14.07307 -6.45891,-3.49447 -13.21597,-5.87984 -20.20401,-7.86307 1.48034,4.38766 2.7885,8.83457 3.88248,13.33863 0.16798,0.69847 0.39056,1.55145 0.63413,2.49332 5.28933,-0.22012 10.58496,0.2032 15.78608,1.36519 3.65151,0.81699 7.22322,1.99381 10.66265,3.47541 3.21054,1.38424 7.29251,2.92934 9.48677,5.78036 0.41785,0.54396 0.0546,1.41598 -0.70342,1.21702 -3.17066,-0.8297 -5.99696,-3.11347 -8.97443,-4.49772 -3.38484,-1.5726 -6.91245,-2.7981 -10.52406,-3.71881 -5.02055,-1.28052 -10.1398,-1.86681 -15.27794,-1.82236 0.74752,2.98648 1.58112,6.63121 1.96958,10.16588 -2.694,-0.87625 -5.38591,-1.75251 -8.07992,-2.62878 -0.884,-0.41272 -1.7806,-0.79795 -2.6814,-1.17046 -0.9197,-0.45929 -1.852,-0.89531 -2.7822,-1.33344 -0.0651,-0.33864 -0.12598,-0.64131 -0.18478,-0.87414 -2.61212,-10.44527 -5.66939,-20.6937 -10.1083,-30.51882 -4.49771,-9.958471 -9.96763,-19.470335 -16.33203,-28.334536 -2.95648,-4.116724 -6.14393,-8.051434 -9.50777,-11.835855 -1.65672,-1.864699 -3.43313,-3.557959 -5.05415,-5.348576 -33.1722,-6.980447 -67.86673,-8.741433 -101.93553,-12.618989 -54.49749,-6.203668 -111.29841,-2.05519 -162.60634,17.870207 2.7276,2.044598 5.28093,4.247955 7.58017,6.339128 7.69357,6.993146 13.79131,15.734576 18.32261,25.091932 4.97017,10.263249 8.19961,21.203799 11.27369,32.163399 1.54542,5.50732 3.06986,11.0231 4.60479,16.53253 0.26247,0.94611 0.56064,1.90915 0.86511,2.87854 -3.85938,1.45408 -7.68727,2.99495 -11.47315,4.62893 -0.15118,-0.62015 -0.29817,-1.24454 -0.45986,-1.84988 -1.00789,-3.75056 -2.01788,-7.50112 -3.02577,-11.2538 -0.0861,0.0593 -0.18268,0.11216 -0.30026,0.13969 -8.14502,1.90915 -15.56352,3.78655 -22.75103,8.36892 -7.3849,4.70726 -12.50835,10.85801 -17.75568,17.74532 -0.53754,0.70483 -1.57902,0.12277 -1.19477,-0.70481 3.55281,-7.64716 10.53456,-14.10482 17.43651,-18.66392 6.84526,-4.51888 15.7042,-8.47051 24.0046,-8.68428 0.0294,-0.002 0.0525,0.0101 0.0819,0.0148 -0.33806,-1.25724 -0.67403,-2.51237 -1.01209,-3.7675 -0.93861,-3.48599 -1.8856,-6.97198 -2.88299,-10.44103 -3.18325,0.70692 -6.39381,1.32073 -9.52037,2.29435 -5.19903,1.6213 -10.1251,3.80348 -15.06376,6.08303 -0.76852,0.35346 -1.42154,-0.70482 -0.67403,-1.15988 4.57961,-2.77906 9.59806,-4.91892 14.66691,-6.61216 3.16225,-1.05829 6.55129,-2.13563 9.95922,-2.75578 -1.52653,-5.17501 -3.18746,-10.30559 -5.15284,-15.33668 -3.59271,-9.204961 -8.52508,-17.741079 -15.18346,-25.036906 -3.44152,-3.77172 -7.17702,-7.189988 -11.28627,-10.208216 -0.61943,-0.452948 -1.25987,-0.888953 -1.90449,-1.316498 -7.93084,3.485981 -15.71469,7.363541 -23.31587,11.668646 -53.15362,30.097634 -95.59842,83.227774 -108.74929,143.744754 -4.02946,18.54327 -4.5775,36.69496 -6.92505,54.89959 1.47824,-0.20107 2.95438,-0.40638 4.41372,-0.63709 8.47888,-1.33555 16.90527,-2.99495 25.23716,-4.99298"
         style="fill:#ffffff;fill-opacity:1;fill-rule:nonzero;stroke:none;stroke-width:0.210816" />
      <path
         id="path37"
         d="m 355.63718,280.98946 c 2.04937,-11.34481 4.29823,-22.65154 6.67098,-33.93284 2.37273,-11.27921 4.85467,-22.54148 7.53818,-33.75084 1.53913,-6.42379 2.92288,-14.57258 5.60639,-21.62499 -7.73976,2.58645 -15.24015,5.79305 -21.89852,8.47897 -5.98855,2.41289 -12.99549,6.92754 -19.87015,8.83033 -9.23689,11.26227 -16.77088,22.88648 -18.12733,37.96916 -1.33965,14.89641 3.86988,29.44149 13.08998,40.98949 6.14183,7.69373 13.95089,13.52489 22.64815,17.63527 0.007,-0.13123 0.0273,-0.27092 0.0336,-0.40638 7.67047,5.09669 16.77508,8.22075 25.7306,9.18803 7.20222,2.80868 14.72361,5.25756 19.86595,-1.39482 1.19267,-0.29633 2.38114,-0.61593 3.55072,-0.98844 4.08824,-1.29322 8.77704,-3.0394 12.77291,-5.51578 0.23937,-0.0296 0.48924,-0.10587 0.74751,-0.23494 10.71724,-5.41631 19.30741,-18.06493 25.23926,-28.22023 6.86416,-11.75543 12.0464,-24.52258 14.64802,-37.92893 2.54071,-13.0783 3.08035,-27.59585 -2.799,-39.86561 -4.95966,-10.35637 -16.49162,-21.51282 -28.78158,-19.86401 -4.74758,0.63709 -6.09564,6.92118 -1.16118,8.6483 11.79863,4.12731 19.39771,9.88227 23.36417,22.34253 3.52552,11.06966 3.25465,23.62303 1.11498,34.95938 -2.06827,10.96172 -5.95285,21.43027 -11.81752,30.89557 -3.14126,5.06919 -6.72976,9.80396 -10.70674,14.23394 -3.641,4.05535 -8.04842,7.50536 -11.43745,11.74696 -0.29398,0.36829 -0.43885,0.77043 -0.47665,1.162 -0.43045,0.26245 -0.85671,0.53126 -1.29976,0.77467 -3.21895,1.77157 -6.60378,3.21718 -10.10201,4.32626 -0.29606,0.0931 -0.59842,0.17357 -0.89659,0.26246 2.62891,-5.70415 2.22995,-12.46872 1.91499,-18.83748 -1.11498,-22.56899 1.63782,-44.88186 3.641,-67.14818 1.08768,-12.1089 1.95489,-24.20511 1.85621,-36.31823 -4.34444,-0.67307 -8.88624,-0.57782 -13.49735,0.0317 0.35487,4.40882 -0.66143,8.85361 -1.51393,13.22856 -1.14647,5.87772 -2.28875,11.75967 -3.6116,17.59928 -2.45044,10.83049 -4.81899,21.68002 -7.03634,32.56132 -2.21736,10.88339 -4.27933,21.79643 -6.27202,32.72429 -1.06459,5.84596 -2.37904,11.75331 -3.09927,17.65431 -0.43885,3.60664 -0.54174,6.61216 -1.65042,9.20073 -6.4169,-1.65939 -12.37815,-4.48924 -17.91315,-8.15937 0.20788,-1.13026 0.47664,-2.31977 0.77062,-3.60453 1.32075,-5.80998 2.10607,-11.78083 3.16435,-17.64796"
         style="fill:#ffffff;fill-opacity:1;fill-rule:nonzero;stroke:none;stroke-width:0.210816" />
      <path
         id="path38"
         d="m 246.8144,267.05819 c 1.24936,7.7149 1.07719,15.93566 1.58323,23.49394 0.37376,5.57928 0.69712,11.15643 0.97849,16.73783 0.0651,1.30381 0.16168,2.61185 0.24147,3.91778 2.04938,-1.8774 4.08826,-3.76962 6.00746,-5.77824 6.66047,-6.96775 12.48523,-14.62762 18.19662,-22.34252 -4.07147,-2.15043 -7.95604,-4.87446 -11.63904,-7.01854 -5.13394,-2.9886 -10.30569,-5.91581 -15.36823,-9.01025"
         style="fill:#ffffff;fill-opacity:1;fill-rule:nonzero;stroke:none;stroke-width:0.210816" />
      <path
         id="path39"
         d="m 431.0022,162.8277 c 4.5607,-1.4816 9.28519,-2.44253 13.96348,-3.47753 4.18065,-0.92494 8.53347,-2.30494 12.82331,-2.23086 2.15436,0.036 3.43523,3.42037 1.18637,4.41939 -4.25204,1.88799 -9.03532,2.37903 -13.59393,3.22355 -4.5901,0.84874 -9.1781,1.76098 -13.827,2.17582 -2.44623,0.21802 -2.66461,-3.4246 -0.55223,-4.11037 z m 72.05997,125.1909 c -5.81217,16.16212 -14.46323,30.05317 -28.5149,40.54078 -2.52183,1.88163 -5.10035,3.62568 -7.72086,5.25756 19.02604,-2.38961 30.59998,-26.01054 39.36022,-40.581 4.85678,-8.07895 6.54079,-15.63299 16.31524,-15.40651 8.72034,0.20318 22.24497,12.47294 27.78838,18.42685 6.66677,7.16247 12.60072,15.22661 20.70165,20.68101 2.17956,1.46889 4.65938,2.73884 7.2757,3.68495 7.4227,2.68593 15.94777,2.76213 21.86703,-2.65417 -5.49721,-9.12666 -18.16723,-15.06576 -26.44453,-22.24093 -8.43058,-7.30852 -16.10524,-15.4933 -22.91691,-24.35326 -12.8506,-16.71666 -25.74951,-38.05805 -23.69173,-60.01111 10.40017,10.79451 13.65482,28.71762 21.1426,41.68585 3.63471,6.29468 7.72507,12.33326 12.19968,18.08609 -6.68987,-11.32788 -10.60805,-25.04325 -13.16557,-36.89605 -3.34493,-15.49541 -6.28251,-35.29381 1.9465,-49.79443 2.61001,-4.59931 6.20482,-8.26732 10.46735,-11.15856 -7.47098,-0.65824 -15.02596,-1.94724 -22.32478,-2.35998 -10.78862,-0.60745 -21.60665,-0.80852 -32.40787,-0.58416 -17.98874,0.37251 -35.84101,1.75251 -53.58619,4.37706 20.2775,18.93272 27.74009,44.77604 22.49487,72.14541 -0.41576,2.1716 -0.91341,4.35379 -1.48874,6.54443 -3.98957,15.15041 -5.79748,27.69109 -15.78609,40.68472 -21.81663,28.37898 -61.26085,39.75765 -95.69711,29.53674 -17.15514,-5.09036 -32.48347,-16.30818 -43.03902,-30.85748 -10.30568,-14.20431 -15.09316,-31.76761 -12.79392,-49.25048 3.99168,-30.36219 15.19816,-42.53458 42.56868,-53.92809 9.89623,-4.11884 19.98984,-7.76992 30.26191,-10.8199 20.48748,-6.0809 40.62219,-10.01984 61.97688,-9.24941 7.83214,-1.7631 15.72519,-3.31667 23.65812,-4.64587 -3.5906,-4.3051 -4.30243,-12.35231 -2.87878,-16.81826 0.084,-0.26458 0.20157,-0.49317 0.33176,-0.70483 -33.36747,2.09329 -66.57327,9.25789 -97.54701,21.17417 -28.29022,10.88129 -56.46286,27.49636 -70.72871,54.53767 -6.92925,13.1312 -10.73614,28.68798 -8.292,43.55478 2.35805,14.33975 9.77023,27.72283 20.02972,38.28028 23.26337,23.93629 58.08599,34.37098 90.67445,35.00807 29.62989,0.57783 66.60057,-1.82871 87.08805,-26.55025 23.47125,-28.32606 24.00459,-65.65601 28.35321,-100.47359 3.07198,13.15237 5.63999,22.37638 3.46043,36.35845 -2.06198,13.23491 -6.24472,26.26875 -10.93771,38.77345"
         style="fill:#ffffff;fill-opacity:1;fill-rule:nonzero;stroke:none;stroke-width:0.210816" />
      <path
         id="path40"
         d="m 652.76751,282.80971 c -0.16167,1.9663 2.64781,2.52931 3.55281,0.97151 7.11824,-12.22531 8.94294,-28.44035 10.32249,-42.32083 0.75592,-7.61753 1.06458,-15.27951 0.9134,-22.93303 -0.12389,-6.15286 0.63624,-13.45504 -3.51501,-18.38453 -0.87141,-1.03288 -2.74861,-0.72598 -3.35124,0.4339 -2.7948,5.3909 -0.9344,12.08562 -0.71603,17.95063 0.26667,7.2429 0.13229,14.50274 -0.41365,21.72871 -1.08769,14.40961 -5.61269,28.26468 -6.79277,42.55364"
         style="fill:#ffffff;fill-opacity:1;fill-rule:nonzero;stroke:none;stroke-width:0.210816" />
    </g>
  </g>
</svg>

