<svg width="16" height="16" viewBox="0 0 16 16" fill="none" xmlns="http://www.w3.org/2000/svg">
  <path d="M2.5 4A1.5 1.5 0 0 1 4 2.5h1.5A1.5 1.5 0 0 1 7 4v1.5A1.5 1.5 0 0 1 5.5 7H4A1.5 1.5 0 0 1 2.5 5.5V4ZM2.5 10.5A1.5 1.5 0 0 1 4 9h1.5A1.5 1.5 0 0 1 7 10.5V12A1.5 1.5 0 0 1 5.5 13.5H4A1.5 1.5 0 0 1 2.5 12v-1.5ZM9 4A1.5 1.5 0 0 1 10.5 2.5H12A1.5 1.5 0 0 1 13.5 4v1.5A1.5 1.5 0 0 1 12 7h-1.5A1.5 1.5 0 0 1 9 5.5V4ZM9 10.5A1.5 1.5 0 0 1 10.5 9H12A1.5 1.5 0 0 1 13.5 10.5V12A1.5 1.5 0 0 1 12 13.5h-1.5A1.5 1.5 0 0 1 9 12v-1.5Z" stroke="white" stroke-width="1.5" stroke-linecap="round" stroke-linejoin="round"/>
</svg>
